<svg xmlns="http://www.w3.org/2000/svg" viewBox="0 0 48 48">
  <defs><linearGradient id="g" x1="0" y1="0" x2="1" y2="1"><stop offset="0" stop-color="#00c9b1"/><stop offset="1" stop-color="#0a3d5e"/></linearGradient></defs>
  <rect width="48" height="48" rx="13" fill="url(#g)"/>
  <path d="M24 11c-5 0-7 2.2-10 2.2-2 0-3.4-.7-4.5-.7-.9 0-1.5.6-1.5 2 0 4.4 1.3 9.2 2.8 13.4C12.6 32.8 14.6 39 17 39c1.9 0 2.4-3 3.4-6 .7-2 1.6-3.2 3.6-3.2s2.9 1.2 3.6 3.2c1 3 1.5 6 3.4 6 2.4 0 4.4-6.2 6.7-11.1 1.5-4.2 2.8-9 2.8-13.4 0-1.4-.6-2-1.5-2-1.1 0-2.5.7-4.5.7-3 0-5-2.2-10-2.2Z" fill="#fff"/>
  <circle cx="24" cy="19" r="2.4" fill="#00c9b1"/>
</svg>
